<mxfile host="app.diagrams.net" agent="Mozilla/5.0 (X11; Linux x86_64; rv:137.0) Gecko/20100101 Firefox/137.0" version="26.2.13">
  <diagram name="Page-1" id="kYgzTke9bRGAgXDO6z5b">
    <mxGraphModel dx="1182" dy="653" grid="1" gridSize="10" guides="1" tooltips="1" connect="1" arrows="1" fold="1" page="1" pageScale="1" pageWidth="850" pageHeight="1100" math="0" shadow="0">
      <root>
        <mxCell id="0" />
        <mxCell id="1" parent="0" />
        <mxCell id="6kh5DIDmJ4HTUUMohHfr-1" value="" style="rounded=0;whiteSpace=wrap;html=1;" vertex="1" parent="1">
          <mxGeometry x="120" y="360" width="600" height="80" as="geometry" />
        </mxCell>
        <mxCell id="6kh5DIDmJ4HTUUMohHfr-2" value="Return addr" style="rounded=0;whiteSpace=wrap;html=1;horizontal=0;" vertex="1" parent="1">
          <mxGeometry x="700" y="360" width="20" height="80" as="geometry" />
        </mxCell>
        <mxCell id="6kh5DIDmJ4HTUUMohHfr-4" value="Saved RBP" style="rounded=0;whiteSpace=wrap;html=1;horizontal=0;" vertex="1" parent="1">
          <mxGeometry x="680" y="360" width="20" height="80" as="geometry" />
        </mxCell>
        <mxCell id="6kh5DIDmJ4HTUUMohHfr-5" value="Canary" style="rounded=0;whiteSpace=wrap;html=1;horizontal=0;" vertex="1" parent="1">
          <mxGeometry x="660" y="360" width="20" height="80" as="geometry" />
        </mxCell>
        <mxCell id="6kh5DIDmJ4HTUUMohHfr-8" style="edgeStyle=orthogonalEdgeStyle;rounded=0;orthogonalLoop=1;jettySize=auto;html=1;exitX=0.5;exitY=0;exitDx=0;exitDy=0;entryX=0;entryY=1;entryDx=0;entryDy=0;" edge="1" parent="1" source="6kh5DIDmJ4HTUUMohHfr-6" target="6kh5DIDmJ4HTUUMohHfr-4">
          <mxGeometry relative="1" as="geometry" />
        </mxCell>
        <mxCell id="6kh5DIDmJ4HTUUMohHfr-6" value="RBP" style="text;html=1;align=center;verticalAlign=middle;whiteSpace=wrap;rounded=0;" vertex="1" parent="1">
          <mxGeometry x="650" y="460" width="60" height="20" as="geometry" />
        </mxCell>
        <mxCell id="6kh5DIDmJ4HTUUMohHfr-9" value="&lt;font&gt;r_msg&lt;/font&gt;" style="rounded=0;whiteSpace=wrap;html=1;horizontal=0;fontFamily=Courier New;" vertex="1" parent="1">
          <mxGeometry x="620" y="360" width="20" height="80" as="geometry" />
        </mxCell>
        <mxCell id="6kh5DIDmJ4HTUUMohHfr-21" style="edgeStyle=orthogonalEdgeStyle;rounded=0;orthogonalLoop=1;jettySize=auto;html=1;exitX=0.5;exitY=0;exitDx=0;exitDy=0;entryX=0;entryY=0;entryDx=0;entryDy=0;dashed=1;" edge="1" parent="1" source="6kh5DIDmJ4HTUUMohHfr-10" target="6kh5DIDmJ4HTUUMohHfr-20">
          <mxGeometry relative="1" as="geometry" />
        </mxCell>
        <mxCell id="6kh5DIDmJ4HTUUMohHfr-10" value="join_buf" style="rounded=0;whiteSpace=wrap;html=1;horizontal=0;fontFamily=Courier New;" vertex="1" parent="1">
          <mxGeometry x="600" y="360" width="20" height="80" as="geometry" />
        </mxCell>
        <mxCell id="6kh5DIDmJ4HTUUMohHfr-11" value="thread" style="rounded=0;whiteSpace=wrap;html=1;horizontal=0;fontFamily=Courier New;" vertex="1" parent="1">
          <mxGeometry x="580" y="360" width="20" height="80" as="geometry" />
        </mxCell>
        <mxCell id="6kh5DIDmJ4HTUUMohHfr-13" style="edgeStyle=orthogonalEdgeStyle;rounded=0;orthogonalLoop=1;jettySize=auto;html=1;exitX=0.5;exitY=0;exitDx=0;exitDy=0;entryX=0;entryY=1;entryDx=0;entryDy=0;" edge="1" parent="1" source="6kh5DIDmJ4HTUUMohHfr-12" target="6kh5DIDmJ4HTUUMohHfr-10">
          <mxGeometry relative="1" as="geometry" />
        </mxCell>
        <mxCell id="6kh5DIDmJ4HTUUMohHfr-12" value="RBP-0x20" style="text;html=1;align=center;verticalAlign=middle;whiteSpace=wrap;rounded=0;" vertex="1" parent="1">
          <mxGeometry x="570" y="460" width="60" height="20" as="geometry" />
        </mxCell>
        <mxCell id="6kh5DIDmJ4HTUUMohHfr-14" value="RBP-0x40" style="text;html=1;align=center;verticalAlign=middle;whiteSpace=wrap;rounded=0;" vertex="1" parent="1">
          <mxGeometry x="490" y="460" width="60" height="20" as="geometry" />
        </mxCell>
        <mxCell id="6kh5DIDmJ4HTUUMohHfr-17" style="edgeStyle=orthogonalEdgeStyle;rounded=0;orthogonalLoop=1;jettySize=auto;html=1;exitX=0.5;exitY=0;exitDx=0;exitDy=0;entryX=0.667;entryY=1;entryDx=0;entryDy=0;entryPerimeter=0;" edge="1" parent="1" source="6kh5DIDmJ4HTUUMohHfr-14" target="6kh5DIDmJ4HTUUMohHfr-1">
          <mxGeometry relative="1" as="geometry" />
        </mxCell>
        <mxCell id="6kh5DIDmJ4HTUUMohHfr-18" value="RBP-0x60" style="text;html=1;align=center;verticalAlign=middle;whiteSpace=wrap;rounded=0;" vertex="1" parent="1">
          <mxGeometry x="410" y="460" width="60" height="20" as="geometry" />
        </mxCell>
        <mxCell id="6kh5DIDmJ4HTUUMohHfr-19" style="edgeStyle=orthogonalEdgeStyle;rounded=0;orthogonalLoop=1;jettySize=auto;html=1;exitX=0.5;exitY=0;exitDx=0;exitDy=0;entryX=0.534;entryY=1.045;entryDx=0;entryDy=0;entryPerimeter=0;" edge="1" parent="1" source="6kh5DIDmJ4HTUUMohHfr-18" target="6kh5DIDmJ4HTUUMohHfr-1">
          <mxGeometry relative="1" as="geometry" />
        </mxCell>
        <mxCell id="6kh5DIDmJ4HTUUMohHfr-20" value="(the join buffer)" style="rounded=0;whiteSpace=wrap;html=1;" vertex="1" parent="1">
          <mxGeometry x="120" y="360" width="320" height="80" as="geometry" />
        </mxCell>
        <mxCell id="6kh5DIDmJ4HTUUMohHfr-22" value="&lt;font&gt;total_size&lt;/font&gt;" style="rounded=0;whiteSpace=wrap;html=1;horizontal=0;fontFamily=Courier New;verticalAlign=middle;spacingBottom=3;" vertex="1" parent="1">
          <mxGeometry x="570" y="360" width="10" height="80" as="geometry" />
        </mxCell>
        <mxCell id="6kh5DIDmJ4HTUUMohHfr-23" value="joined_count" style="rounded=0;whiteSpace=wrap;html=1;horizontal=0;fontFamily=Courier New;verticalAlign=middle;spacingBottom=3;" vertex="1" parent="1">
          <mxGeometry x="560" y="360" width="10" height="80" as="geometry" />
        </mxCell>
      </root>
    </mxGraphModel>
  </diagram>
</mxfile>
